<svg width="960" height="540" viewBox="0 0 960 540" fill="none" xmlns="http://www.w3.org/2000/svg">
  <defs>
    <radialGradient id="missionGlow" cx="0" cy="0" r="1" gradientUnits="userSpaceOnUse" gradientTransform="translate(480 260) scale(420 260)">
      <stop offset="0%" stop-color="#FFFFFF" stop-opacity="0.95"/>
      <stop offset="100%" stop-color="#E4F7FF" stop-opacity="0.3"/>
    </radialGradient>
    <linearGradient id="missionSky" x1="200" y1="60" x2="760" y2="500" gradientUnits="userSpaceOnUse">
      <stop offset="0%" stop-color="#F0F4FF"/>
      <stop offset="50%" stop-color="#E7F7FF"/>
      <stop offset="100%" stop-color="#FFE8F4"/>
    </linearGradient>
    <linearGradient id="needle" x1="480" y1="160" x2="600" y2="380" gradientUnits="userSpaceOnUse">
      <stop offset="0%" stop-color="#FFAA9F"/>
      <stop offset="100%" stop-color="#A8CFFF"/>
    </linearGradient>
  </defs>
  <rect width="960" height="540" rx="8" fill="url(#missionSky)"/>
  <circle cx="480" cy="270" r="240" fill="url(#missionGlow)"/>
  <circle cx="480" cy="270" r="180" stroke="#D2E8FF" stroke-width="4" stroke-dasharray="12 16" opacity="0.55"/>
  <circle cx="480" cy="270" r="140" stroke="#FDD0E6" stroke-width="4" stroke-dasharray="16 18" opacity="0.45"/>
  <line x1="480" y1="130" x2="480" y2="410" stroke="#B6D2FF" stroke-width="8" stroke-linecap="round" opacity="0.35"/>
  <line x1="340" y1="270" x2="620" y2="270" stroke="#FFC6E5" stroke-width="8" stroke-linecap="round" opacity="0.35"/>
  <polygon points="480,160 564,270 480,380 396,270" fill="url(#needle)" opacity="0.7"/>
  <circle cx="480" cy="270" r="34" fill="#FFFFFF"/>
  <circle cx="480" cy="270" r="20" fill="#B4D3FF"/>
  <path d="M480 176C500 210 520 230 560 242" stroke="#FFC9DA" stroke-width="9" stroke-linecap="round" opacity="0.6"/>
  <path d="M400 332C440 360 500 368 560 352" stroke="#C5F1FF" stroke-width="9" stroke-linecap="round" opacity="0.45"/>
  <g opacity="0.7">
    <circle cx="360" cy="190" r="18" fill="#FFE6D9"/>
    <circle cx="640" cy="360" r="18" fill="#DFF1FF"/>
    <circle cx="360" cy="360" r="14" fill="#F2D6FF"/>
    <circle cx="640" cy="190" r="14" fill="#FFDDEB"/>
  </g>
</svg>
