<svg width="960" height="540" viewBox="0 0 960 540" fill="none" xmlns="http://www.w3.org/2000/svg">
  <defs>
    <linearGradient id="bg" x1="160" y1="40" x2="800" y2="500" gradientUnits="userSpaceOnUse">
      <stop offset="0%" stop-color="#FFF9EB"/>
      <stop offset="50%" stop-color="#FFE7F6"/>
      <stop offset="100%" stop-color="#D9F3FF"/>
    </linearGradient>
    <radialGradient id="pulse" cx="0" cy="0" r="1" gradientUnits="userSpaceOnUse" gradientTransform="translate(480 280) scale(340 220)">
      <stop offset="0%" stop-color="#FFFFFF" stop-opacity="0.9"/>
      <stop offset="100%" stop-color="#FFFFFF" stop-opacity="0"/>
    </radialGradient>
    <linearGradient id="arc" x1="220" y1="360" x2="740" y2="200" gradientUnits="userSpaceOnUse">
      <stop offset="0%" stop-color="#FFC7A8"/>
      <stop offset="50%" stop-color="#FBD3FF"/>
      <stop offset="100%" stop-color="#A9E4FF"/>
    </linearGradient>
  </defs>
  <rect width="960" height="540" rx="8" fill="url(#bg)"/>
  <ellipse cx="480" cy="270" rx="360" ry="240" fill="url(#pulse)"/>
  <path d="M280 360C320 300 360 260 400 240C440 220 480 220 520 240C560 260 600 300 640 360" stroke="url(#arc)" stroke-width="36" stroke-linecap="round" stroke-opacity="0.35"/>
  <path d="M330 320C360 280 400 250 440 250C480 250 520 280 550 320" stroke="url(#arc)" stroke-width="20" stroke-linecap="round" stroke-opacity="0.5"/>
  <g opacity="0.85">
    <circle cx="480" cy="190" r="56" fill="#FFFFFF" fill-opacity="0.8"/>
    <circle cx="480" cy="190" r="28" fill="#FFD6EC"/>
    <circle cx="420" cy="150" r="18" fill="#FFEDE6"/>
    <circle cx="540" cy="150" r="18" fill="#DAF4FF"/>
    <circle cx="600" cy="220" r="22" fill="#F1D3FF"/>
    <circle cx="360" cy="220" r="22" fill="#FFE8D6"/>
  </g>
  <path d="M420 380C450 400 510 400 540 380" stroke="#FFE0F8" stroke-width="10" stroke-linecap="round" opacity="0.6"/>
  <path d="M360 415C420 420 540 420 600 415" stroke="#CFEFFF" stroke-width="8" stroke-linecap="round" opacity="0.4"/>
</svg>
